<svg width="96" height="124" viewBox="0 0 96 124" fill="none" xmlns="http://www.w3.org/2000/svg">
<circle cx="48" cy="48" r="45.3333" fill="black" fill-opacity="0.85" stroke="#404041" stroke-width="5.33333"/>
<g clip-path="url(#clip0_146_848)">
<path d="M40.8978 50.8703C41.7684 50.8703 42.4987 50.5753 43.0886 49.9853C43.6765 49.3974 43.9705 48.6682 43.9705 47.7976C43.9705 46.927 43.6765 46.1967 43.0886 45.6068C42.4987 45.0189 41.7684 44.7249 40.8978 44.7249C40.0272 44.7249 39.298 45.0189 38.7101 45.6068C38.1201 46.1967 37.8251 46.927 37.8251 47.7976C37.8251 48.6682 38.1201 49.3974 38.7101 49.9853C39.298 50.5753 40.0272 50.8703 40.8978 50.8703ZM28.6071 75.4517V69.3064L47.0432 66.2337V32.0501C47.0432 31.2819 46.8127 30.5906 46.3518 29.976C45.8909 29.3615 45.302 29.003 44.585 28.9006L28.6071 26.2888V20.1434L45.5068 22.9088C47.7601 23.3185 49.6038 24.3684 51.0377 26.0583C52.4716 27.7483 53.1886 29.72 53.1886 31.9733V71.3036L28.6071 75.4517ZM16.3164 75.4517V69.3064H22.4617V26.2888C22.4617 24.5476 23.064 23.0881 24.2685 21.9102C25.4709 20.7324 26.9171 20.1434 28.6071 20.1434H59.3339C61.0751 20.1434 62.5346 20.7324 63.7125 21.9102C64.8904 23.0881 65.4793 24.5476 65.4793 26.2888V37.0432H59.3339V58.552H65.4793V69.3064H71.6247V75.4517H16.3164ZM28.6071 69.3064H59.3339V58.552V47.7976V37.0432V26.2888H28.6071V69.3064Z" fill="#404041"/>
</g>
<g clip-path="url(#clip1_146_848)">
<path d="M74.0741 64L58.0741 48L74.0741 32L76.9241 34.8L65.7241 46H90.0741V50H65.7241L76.9241 61.2L74.0741 64Z" fill="#404041"/>
</g>
<path d="M14.9448 115V102.729H16.5686V108.814L22.6624 102.729H24.8638L19.716 107.701L25.0898 115H22.947L18.5776 108.789L16.5686 110.748V115H14.9448ZM25.6925 110.555C25.6925 108.909 26.1501 107.69 27.0653 106.897C27.8298 106.239 28.7617 105.91 29.861 105.91C31.0831 105.91 32.082 106.311 32.8577 107.115C33.6334 107.913 34.0212 109.018 34.0212 110.43C34.0212 111.574 33.8482 112.475 33.5022 113.133C33.1618 113.786 32.6624 114.294 32.0039 114.657C31.351 115.02 30.6367 115.201 29.861 115.201C28.6166 115.201 27.6094 114.802 26.8393 114.004C26.0748 113.206 25.6925 112.056 25.6925 110.555ZM27.2411 110.555C27.2411 111.694 27.4894 112.547 27.986 113.117C28.4827 113.68 29.1077 113.962 29.861 113.962C30.6088 113.962 31.231 113.677 31.7277 113.108C32.2243 112.539 32.4727 111.671 32.4727 110.505C32.4727 109.406 32.2215 108.574 31.7193 108.011C31.2227 107.441 30.6032 107.157 29.861 107.157C29.1077 107.157 28.4827 107.439 27.986 108.002C27.4894 108.566 27.2411 109.417 27.2411 110.555ZM35.7958 115V106.11H37.1434V107.358C37.4224 106.922 37.7935 106.574 38.2567 106.311C38.7199 106.044 39.2472 105.91 39.8387 105.91C40.4972 105.91 41.0357 106.046 41.4542 106.32C41.8783 106.593 42.1769 106.975 42.3499 107.467C43.053 106.429 43.9682 105.91 45.0954 105.91C45.9771 105.91 46.6551 106.155 47.1295 106.646C47.6038 107.132 47.841 107.882 47.841 108.898V115H46.3426V109.4C46.3426 108.797 46.2924 108.365 46.192 108.103C46.0971 107.835 45.9213 107.62 45.6646 107.458C45.4079 107.296 45.1066 107.215 44.7606 107.215C44.1356 107.215 43.6166 107.425 43.2037 107.843C42.7907 108.256 42.5843 108.92 42.5843 109.835V115H41.0776V109.224C41.0776 108.555 40.9548 108.052 40.7093 107.718C40.4637 107.383 40.0619 107.215 39.5039 107.215C39.0798 107.215 38.6864 107.327 38.3237 107.55C37.9665 107.773 37.707 108.1 37.5452 108.53C37.3834 108.959 37.3025 109.579 37.3025 110.388V115H35.7958ZM50.0759 115V106.11H51.4235V107.358C51.7026 106.922 52.0737 106.574 52.5368 106.311C53 106.044 53.5273 105.91 54.1189 105.91C54.7773 105.91 55.3158 106.046 55.7344 106.32C56.1585 106.593 56.457 106.975 56.63 107.467C57.3331 106.429 58.2483 105.91 59.3756 105.91C60.2573 105.91 60.9353 106.155 61.4096 106.646C61.8839 107.132 62.1211 107.882 62.1211 108.898V115H60.6228V109.4C60.6228 108.797 60.5725 108.365 60.4721 108.103C60.3772 107.835 60.2014 107.62 59.9448 107.458C59.6881 107.296 59.3867 107.215 59.0407 107.215C58.4157 107.215 57.8968 107.425 57.4838 107.843C57.0709 108.256 56.8644 108.92 56.8644 109.835V115H55.3577V109.224C55.3577 108.555 55.2349 108.052 54.9894 107.718C54.7439 107.383 54.3421 107.215 53.784 107.215C53.3599 107.215 52.9665 107.327 52.6038 107.55C52.2467 107.773 51.9872 108.1 51.8253 108.53C51.6635 108.959 51.5826 109.579 51.5826 110.388V115H50.0759ZM70.4414 112.137L71.9983 112.33C71.7528 113.239 71.298 113.945 70.6339 114.448C69.9699 114.95 69.1216 115.201 68.0893 115.201C66.7891 115.201 65.7567 114.802 64.9922 114.004C64.2333 113.2 63.8538 112.076 63.8538 110.631C63.8538 109.135 64.2388 107.974 65.0089 107.148C65.779 106.323 66.7779 105.91 68.0056 105.91C69.1942 105.91 70.1652 106.314 70.9185 107.123C71.6719 107.932 72.0485 109.071 72.0485 110.539C72.0485 110.628 72.0458 110.762 72.0402 110.94H65.4107C65.4665 111.917 65.7427 112.665 66.2394 113.184C66.736 113.703 67.3555 113.962 68.0977 113.962C68.6501 113.962 69.1216 113.817 69.5123 113.527C69.9029 113.237 70.2126 112.773 70.4414 112.137ZM65.4944 109.701H70.4581C70.3912 108.954 70.2014 108.393 69.8889 108.019C69.409 107.439 68.7868 107.148 68.0223 107.148C67.3304 107.148 66.7472 107.38 66.2729 107.843C65.8041 108.306 65.5446 108.926 65.4944 109.701ZM73.8984 115V106.11H75.2545V107.374C75.9074 106.398 76.8504 105.91 78.0837 105.91C78.6194 105.91 79.1105 106.007 79.5569 106.203C80.0089 106.392 80.3465 106.643 80.5698 106.956C80.793 107.268 80.9492 107.64 81.0385 108.069C81.0943 108.348 81.1222 108.836 81.1222 109.534V115H79.6155V109.593C79.6155 108.979 79.5569 108.521 79.4397 108.22C79.3225 107.913 79.1133 107.67 78.8119 107.492C78.5162 107.307 78.1674 107.215 77.7656 107.215C77.1239 107.215 76.5686 107.419 76.0999 107.826C75.6367 108.234 75.4051 109.007 75.4051 110.145V115H73.8984Z" fill="#404041"/>
<defs>
<clipPath id="clip0_146_848">
<rect width="57.0924" height="57.0924" fill="white" transform="translate(10.6666 16.5925)"/>
</clipPath>
<clipPath id="clip1_146_848">
<rect width="48" height="55.1111" fill="white" transform="translate(37.3333 12.4445)"/>
</clipPath>
</defs>
</svg>
