<svg width="96" height="96" viewBox="0 0 96 96" fill="none" xmlns="http://www.w3.org/2000/svg">
<g clip-path="url(#clip0_172_609)">
<circle cx="48" cy="48" r="45.3333" stroke="#0BC734" stroke-width="5.33333"/>
<g clip-path="url(#clip1_172_609)">
<path d="M40.8978 50.8703C41.7684 50.8703 42.4987 50.5753 43.0886 49.9853C43.6765 49.3974 43.9705 48.6682 43.9705 47.7976C43.9705 46.927 43.6765 46.1967 43.0886 45.6068C42.4987 45.0189 41.7684 44.7249 40.8978 44.7249C40.0272 44.7249 39.298 45.0189 38.7101 45.6068C38.1201 46.1967 37.8251 46.927 37.8251 47.7976C37.8251 48.6682 38.1201 49.3974 38.7101 49.9853C39.298 50.5753 40.0272 50.8703 40.8978 50.8703ZM28.6071 75.4517V69.3064L47.0432 66.2337V32.0501C47.0432 31.2819 46.8127 30.5906 46.3518 29.976C45.8909 29.3615 45.302 29.003 44.585 28.9006L28.6071 26.2888V20.1434L45.5068 22.9088C47.7601 23.3185 49.6038 24.3684 51.0377 26.0583C52.4716 27.7483 53.1886 29.72 53.1886 31.9733V71.3036L28.6071 75.4517ZM16.3164 75.4517V69.3064H22.4617V26.2888C22.4617 24.5476 23.064 23.0881 24.2685 21.9102C25.4709 20.7324 26.9171 20.1434 28.6071 20.1434H59.3339C61.0751 20.1434 62.5346 20.7324 63.7125 21.9102C64.8904 23.0881 65.4793 24.5476 65.4793 26.2888V37.0432H59.3339V58.552H65.4793V69.3064H71.6247V75.4517H16.3164ZM28.6071 69.3064H59.3339V58.552V47.7976V37.0432V26.2888H28.6071V69.3064Z" fill="#0BC734"/>
</g>
<g clip-path="url(#clip2_172_609)">
<path d="M74.0741 64L58.0741 48L74.0741 32L76.9241 34.8L65.7241 46H90.0741V50H65.7241L76.9241 61.2L74.0741 64Z" fill="#0BC734"/>
</g>
</g>
<defs>
<clipPath id="clip0_172_609">
<rect width="96" height="96" fill="white"/>
</clipPath>
<clipPath id="clip1_172_609">
<rect width="57.0924" height="57.0924" fill="white" transform="translate(10.6666 16.5925)"/>
</clipPath>
<clipPath id="clip2_172_609">
<rect width="48" height="55.1111" fill="white" transform="translate(37.3333 12.4445)"/>
</clipPath>
</defs>
</svg>
