<svg width="96" height="96" viewBox="0 0 96 96" fill="none" xmlns="http://www.w3.org/2000/svg">
<g clip-path="url(#clip0_70_610)">
<path d="M48 26C63.16 26 76.68 34.52 83.28 48C76.68 61.48 63.2 70 48 70C32.8 70 19.32 61.48 12.72 48C19.32 34.52 32.84 26 48 26ZM48 18C28 18 10.92 30.44 4 48C10.92 65.56 28 78 48 78C68 78 85.08 65.56 92 48C85.08 30.44 68 18 48 18ZM48 38C53.52 38 58 42.48 58 48C58 53.52 53.52 58 48 58C42.48 58 38 53.52 38 48C38 42.48 42.48 38 48 38ZM48 30C38.08 30 30 38.08 30 48C30 57.92 38.08 66 48 66C57.92 66 66 57.92 66 48C66 38.08 57.92 30 48 30Z" fill="#2457C5"/>
</g>
<defs>
<clipPath id="clip0_70_610">
<rect width="96" height="96" fill="white"/>
</clipPath>
</defs>
</svg>
