<svg width="96" height="124" viewBox="0 0 96 124" fill="none" xmlns="http://www.w3.org/2000/svg">
<path d="M6.50502 115V102.729H14.7835V104.177H8.1289V107.977H13.8878V109.425H8.1289V115H6.50502ZM22.7941 112.137L24.351 112.33C24.1055 113.239 23.6507 113.945 22.9866 114.448C22.3225 114.95 21.4743 115.201 20.442 115.201C19.1417 115.201 18.1094 114.802 17.3449 114.004C16.5859 113.2 16.2065 112.076 16.2065 110.631C16.2065 109.135 16.5915 107.974 17.3616 107.148C18.1317 106.323 19.1306 105.91 20.3583 105.91C21.5469 105.91 22.5179 106.314 23.2712 107.123C24.0246 107.932 24.4012 109.071 24.4012 110.539C24.4012 110.628 24.3984 110.762 24.3929 110.94H17.7634C17.8192 111.917 18.0954 112.665 18.5921 113.184C19.0887 113.703 19.7081 113.962 20.4503 113.962C21.0028 113.962 21.4743 113.817 21.865 113.527C22.2556 113.237 22.5653 112.773 22.7941 112.137ZM17.8471 109.701H22.8108C22.7439 108.954 22.5541 108.393 22.2416 108.019C21.7617 107.439 21.1395 107.148 20.375 107.148C19.683 107.148 19.0999 107.38 18.6256 107.843C18.1568 108.306 17.8973 108.926 17.8471 109.701ZM26.2595 104.461V102.729H27.7662V104.461H26.2595ZM26.2595 115V106.11H27.7662V115H26.2595ZM36.1535 112.137L37.7104 112.33C37.4648 113.239 37.01 113.945 36.346 114.448C35.6819 114.95 34.8337 115.201 33.8013 115.201C32.5011 115.201 31.4687 114.802 30.7042 114.004C29.9453 113.2 29.5658 112.076 29.5658 110.631C29.5658 109.135 29.9509 107.974 30.721 107.148C31.4911 106.323 32.49 105.91 33.7176 105.91C34.9062 105.91 35.8772 106.314 36.6306 107.123C37.3839 107.932 37.7606 109.071 37.7606 110.539C37.7606 110.628 37.7578 110.762 37.7522 110.94H31.1228C31.1786 111.917 31.4548 112.665 31.9514 113.184C32.4481 113.703 33.0675 113.962 33.8097 113.962C34.3622 113.962 34.8337 113.817 35.2243 113.527C35.615 113.237 35.9247 112.773 36.1535 112.137ZM31.2065 109.701H36.1702C36.1032 108.954 35.9135 108.393 35.601 108.019C35.1211 107.439 34.4989 107.148 33.7344 107.148C33.0424 107.148 32.4593 107.38 31.9849 107.843C31.5162 108.306 31.2567 108.926 31.2065 109.701ZM39.5937 115V106.11H40.9498V107.458C41.2958 106.828 41.6138 106.412 41.904 106.211C42.1998 106.01 42.5234 105.91 42.875 105.91C43.3828 105.91 43.899 106.071 44.4235 106.395L43.9046 107.793C43.5363 107.575 43.168 107.467 42.7997 107.467C42.4704 107.467 42.1747 107.567 41.9124 107.768C41.6501 107.963 41.4632 108.237 41.3516 108.588C41.1842 109.124 41.1004 109.71 41.1004 110.346V115H39.5937ZM51.12 113.903C50.5619 114.378 50.0234 114.713 49.5045 114.908C48.9911 115.103 48.4386 115.201 47.8471 115.201C46.8705 115.201 46.12 114.964 45.5954 114.489C45.0709 114.009 44.8086 113.398 44.8086 112.656C44.8086 112.221 44.9062 111.825 45.1016 111.468C45.3025 111.105 45.5619 110.815 45.88 110.597C46.2037 110.379 46.5664 110.215 46.9682 110.103C47.2639 110.025 47.7104 109.95 48.3075 109.877C49.524 109.732 50.4196 109.559 50.9944 109.358C51 109.152 51.0028 109.021 51.0028 108.965C51.0028 108.351 50.8605 107.919 50.5759 107.667C50.1908 107.327 49.6189 107.157 48.8599 107.157C48.1512 107.157 47.6267 107.282 47.2863 107.533C46.9514 107.779 46.7031 108.217 46.5413 108.848L45.0681 108.647C45.202 108.016 45.4224 107.508 45.7293 107.123C46.0363 106.733 46.4799 106.434 47.0603 106.228C47.6406 106.016 48.3131 105.91 49.0776 105.91C49.8365 105.91 50.4531 105.999 50.9275 106.177C51.4018 106.356 51.7506 106.582 51.9738 106.855C52.197 107.123 52.3532 107.464 52.4425 107.877C52.4927 108.133 52.5179 108.597 52.5179 109.266V111.275C52.5179 112.676 52.5485 113.563 52.6099 113.937C52.6769 114.305 52.8052 114.66 52.995 115H51.4213C51.2651 114.688 51.1646 114.322 51.12 113.903ZM50.9944 110.539C50.4475 110.762 49.6272 110.951 48.5335 111.108C47.9141 111.197 47.476 111.297 47.2193 111.409C46.9626 111.521 46.7645 111.685 46.625 111.903C46.4855 112.115 46.4157 112.352 46.4157 112.614C46.4157 113.016 46.5664 113.351 46.8677 113.619C47.1747 113.887 47.6211 114.021 48.207 114.021C48.7874 114.021 49.3036 113.895 49.7556 113.644C50.2076 113.387 50.5396 113.039 50.7517 112.598C50.9135 112.257 50.9944 111.755 50.9944 111.091V110.539ZM56.2511 115H54.8532V102.729H56.3599V107.107C56.9961 106.309 57.808 105.91 58.7958 105.91C59.3426 105.91 59.8588 106.021 60.3443 106.244C60.8354 106.462 61.2372 106.772 61.5497 107.174C61.8677 107.57 62.1161 108.05 62.2946 108.613C62.4732 109.177 62.5625 109.78 62.5625 110.421C62.5625 111.945 62.1858 113.122 61.4325 113.954C60.6791 114.785 59.7751 115.201 58.7204 115.201C57.6713 115.201 56.8482 114.763 56.2511 113.887V115ZM56.2344 110.488C56.2344 111.554 56.3795 112.324 56.6696 112.799C57.144 113.574 57.7857 113.962 58.5949 113.962C59.2533 113.962 59.8225 113.677 60.3025 113.108C60.7824 112.533 61.0223 111.68 61.0223 110.547C61.0223 109.386 60.7907 108.53 60.3276 107.977C59.87 107.425 59.3147 107.148 58.6618 107.148C58.0033 107.148 57.4341 107.436 56.9542 108.011C56.4743 108.58 56.2344 109.406 56.2344 110.488ZM70.4894 112.137L72.0463 112.33C71.8008 113.239 71.346 113.945 70.6819 114.448C70.0179 114.95 69.1696 115.201 68.1373 115.201C66.8371 115.201 65.8047 114.802 65.0402 114.004C64.2812 113.2 63.9018 112.076 63.9018 110.631C63.9018 109.135 64.2868 107.974 65.0569 107.148C65.827 106.323 66.8259 105.91 68.0536 105.91C69.2422 105.91 70.2132 106.314 70.9665 107.123C71.7199 107.932 72.0965 109.071 72.0965 110.539C72.0965 110.628 72.0937 110.762 72.0882 110.94H65.4587C65.5145 111.917 65.7907 112.665 66.2874 113.184C66.784 113.703 67.4035 113.962 68.1456 113.962C68.6981 113.962 69.1696 113.817 69.5603 113.527C69.9509 113.237 70.2606 112.773 70.4894 112.137ZM65.5424 109.701H70.5061C70.4392 108.954 70.2494 108.393 69.9369 108.019C69.457 107.439 68.8348 107.148 68.0703 107.148C67.3783 107.148 66.7952 107.38 66.3209 107.843C65.8521 108.306 65.5926 108.926 65.5424 109.701ZM73.9464 115V106.11H75.3025V107.374C75.9554 106.398 76.8984 105.91 78.1317 105.91C78.6674 105.91 79.1585 106.007 79.6049 106.203C80.0569 106.392 80.3945 106.643 80.6177 106.956C80.841 107.268 80.9972 107.64 81.0865 108.069C81.1423 108.348 81.1702 108.836 81.1702 109.534V115H79.6635V109.593C79.6635 108.979 79.6049 108.521 79.4877 108.22C79.3705 107.913 79.1613 107.67 78.8599 107.492C78.5642 107.307 78.2154 107.215 77.8136 107.215C77.1719 107.215 76.6166 107.419 76.1479 107.826C75.6847 108.234 75.4531 109.007 75.4531 110.145V115H73.9464ZM89.2561 115V113.878C88.6925 114.76 87.8638 115.201 86.7701 115.201C86.0614 115.201 85.4085 115.006 84.8114 114.615C84.2199 114.224 83.7595 113.68 83.4302 112.983C83.1066 112.28 82.9448 111.473 82.9448 110.564C82.9448 109.676 83.0926 108.873 83.3884 108.153C83.6842 107.427 84.1278 106.872 84.7193 106.487C85.3108 106.102 85.9721 105.91 86.7031 105.91C87.2388 105.91 87.716 106.024 88.1345 106.253C88.553 106.476 88.8934 106.769 89.1557 107.132V102.729H90.654V115H89.2561ZM84.4933 110.564C84.4933 111.702 84.7333 112.553 85.2132 113.117C85.6931 113.68 86.2595 113.962 86.9124 113.962C87.5709 113.962 88.1289 113.694 88.5865 113.158C89.0497 112.617 89.2813 111.794 89.2813 110.689C89.2813 109.473 89.0469 108.58 88.5781 108.011C88.1094 107.441 87.5318 107.157 86.8454 107.157C86.1758 107.157 85.615 107.43 85.1629 107.977C84.7165 108.524 84.4933 109.386 84.4933 110.564Z" fill="#FF3D46"/>
<circle cx="48" cy="48" r="45.3333" fill="black" fill-opacity="0.85" stroke="#FF3D46" stroke-width="5.33333"/>
<rect x="31.3469" y="31.3469" width="35.2653" height="35.2653" stroke="#FF3D46" stroke-width="7.83673"/>
</svg>
