<svg width="96" height="124" viewBox="0 0 96 124" fill="none" xmlns="http://www.w3.org/2000/svg">
<path d="M29.3086 110.187V108.747L34.5067 108.739V113.292C33.7087 113.929 32.8856 114.408 32.0374 114.732C31.1892 115.05 30.3186 115.209 29.4258 115.209C28.2204 115.209 27.1239 114.953 26.1362 114.439C25.154 113.92 24.4118 113.172 23.9096 112.196C23.4074 111.219 23.1563 110.128 23.1563 108.923C23.1563 107.729 23.4046 106.616 23.9012 105.583C24.4035 104.545 25.1233 103.775 26.0608 103.273C26.9983 102.771 28.0781 102.52 29.3002 102.52C30.1875 102.52 30.9883 102.665 31.7026 102.955C32.4224 103.239 32.986 103.638 33.3934 104.152C33.8008 104.665 34.1105 105.335 34.3225 106.161L32.8577 106.563C32.6735 105.938 32.4448 105.446 32.1713 105.089C31.8979 104.732 31.5073 104.448 30.9994 104.235C30.4916 104.018 29.928 103.909 29.3086 103.909C28.5664 103.909 27.9247 104.023 27.3834 104.252C26.8421 104.475 26.404 104.771 26.0692 105.14C25.74 105.508 25.4833 105.912 25.2991 106.353C24.9866 107.112 24.8304 107.935 24.8304 108.823C24.8304 109.916 25.0173 110.831 25.3912 111.568C25.7706 112.305 26.3203 112.852 27.0402 113.209C27.76 113.566 28.5246 113.744 29.3337 113.744C30.0368 113.744 30.7232 113.61 31.3929 113.343C32.0625 113.069 32.5703 112.779 32.9163 112.472V110.187H29.3086ZM42.8019 112.137L44.3588 112.33C44.1133 113.239 43.6585 113.945 42.9944 114.448C42.3304 114.95 41.4821 115.201 40.4498 115.201C39.1496 115.201 38.1172 114.802 37.3527 114.004C36.5937 113.2 36.2143 112.076 36.2143 110.631C36.2143 109.135 36.5993 107.974 37.3694 107.148C38.1395 106.323 39.1384 105.91 40.3661 105.91C41.5547 105.91 42.5257 106.314 43.279 107.123C44.0324 107.932 44.409 109.071 44.409 110.539C44.409 110.628 44.4062 110.762 44.4007 110.94H37.7712C37.827 111.917 38.1032 112.665 38.5999 113.184C39.0965 113.703 39.716 113.962 40.4581 113.962C41.0106 113.962 41.4821 113.817 41.8728 113.527C42.2634 113.237 42.5731 112.773 42.8019 112.137ZM37.8549 109.701H42.8186C42.7517 108.954 42.5619 108.393 42.2494 108.019C41.7695 107.439 41.1473 107.148 40.3828 107.148C39.6908 107.148 39.1077 107.38 38.6334 107.843C38.1646 108.306 37.9051 108.926 37.8549 109.701ZM46.2589 115V102.729H47.7656V107.132C48.4687 106.317 49.356 105.91 50.4275 105.91C51.0859 105.91 51.6579 106.041 52.1434 106.303C52.6289 106.56 52.9749 106.917 53.1814 107.374C53.3934 107.832 53.4994 108.496 53.4994 109.367V115H51.9927V109.367C51.9927 108.613 51.8281 108.066 51.4989 107.726C51.1752 107.38 50.7148 107.207 50.1177 107.207C49.6713 107.207 49.25 107.324 48.8538 107.559C48.4632 107.787 48.1842 108.1 48.0167 108.496C47.8493 108.892 47.7656 109.439 47.7656 110.137V115H46.2589ZM61.8867 112.137L63.4436 112.33C63.1981 113.239 62.7433 113.945 62.0792 114.448C61.4152 114.95 60.567 115.201 59.5346 115.201C58.2344 115.201 57.202 114.802 56.4375 114.004C55.6786 113.2 55.2991 112.076 55.2991 110.631C55.2991 109.135 55.6842 107.974 56.4542 107.148C57.2243 106.323 58.2232 105.91 59.4509 105.91C60.6395 105.91 61.6105 106.314 62.3638 107.123C63.1172 107.932 63.4939 109.071 63.4939 110.539C63.4939 110.628 63.4911 110.762 63.4855 110.94H56.856C56.9118 111.917 57.1881 112.665 57.6847 113.184C58.1814 113.703 58.8008 113.962 59.543 113.962C60.0954 113.962 60.567 113.817 60.9576 113.527C61.3482 113.237 61.6579 112.773 61.8867 112.137ZM56.9397 109.701H61.9035C61.8365 108.954 61.6468 108.393 61.3343 108.019C60.8544 107.439 60.2321 107.148 59.4676 107.148C58.7757 107.148 58.1925 107.38 57.7182 107.843C57.2494 108.306 56.99 108.926 56.9397 109.701ZM65.3437 115V106.11H66.6998V107.374C67.3527 106.398 68.2958 105.91 69.529 105.91C70.0647 105.91 70.5558 106.007 71.0022 106.203C71.4542 106.392 71.7919 106.643 72.0151 106.956C72.2383 107.268 72.3945 107.64 72.4838 108.069C72.5396 108.348 72.5675 108.836 72.5675 109.534V115H71.0608V109.593C71.0608 108.979 71.0022 108.521 70.885 108.22C70.7679 107.913 70.5586 107.67 70.2573 107.492C69.9615 107.307 69.6127 107.215 69.2109 107.215C68.5692 107.215 68.0139 107.419 67.5452 107.826C67.082 108.234 66.8504 109.007 66.8504 110.145V115H65.3437Z" fill="#404041"/>
<circle cx="48" cy="48" r="45.3333" fill="black" fill-opacity="0.85" stroke="#404041" stroke-width="5.33333"/>
<g clip-path="url(#clip0_146_878)">
<path d="M40.8978 50.8703C41.7684 50.8703 42.4987 50.5753 43.0886 49.9853C43.6765 49.3974 43.9705 48.6682 43.9705 47.7976C43.9705 46.927 43.6765 46.1967 43.0886 45.6068C42.4987 45.0189 41.7684 44.7249 40.8978 44.7249C40.0272 44.7249 39.298 45.0189 38.7101 45.6068C38.1201 46.1967 37.8251 46.927 37.8251 47.7976C37.8251 48.6682 38.1201 49.3974 38.7101 49.9853C39.298 50.5753 40.0272 50.8703 40.8978 50.8703ZM28.6071 75.4517V69.3064L47.0432 66.2337V32.0501C47.0432 31.2819 46.8127 30.5906 46.3518 29.976C45.8909 29.3615 45.302 29.003 44.585 28.9006L28.6071 26.2888V20.1434L45.5068 22.9088C47.7601 23.3185 49.6037 24.3684 51.0377 26.0583C52.4716 27.7483 53.1885 29.72 53.1885 31.9733V71.3036L28.6071 75.4517ZM16.3163 75.4517V69.3064H22.4617V26.2888C22.4617 24.5476 23.064 23.0881 24.2684 21.9102C25.4709 20.7324 26.9171 20.1434 28.6071 20.1434H59.3339C61.0751 20.1434 62.5346 20.7324 63.7125 21.9102C64.8903 23.0881 65.4793 24.5476 65.4793 26.2888V37.0432H59.3339V58.552H65.4793V69.3064H71.6246V75.4517H16.3163ZM28.6071 69.3064H59.3339V58.552V47.7976V37.0432V26.2888H28.6071V69.3064Z" fill="#404041"/>
</g>
<g clip-path="url(#clip1_146_878)">
<path d="M68.898 63.9999L84.898 47.9999L68.898 31.9999L66.048 34.7999L77.248 45.9999H52.898V49.9999H77.248L66.048 61.1999L68.898 63.9999Z" fill="#404041"/>
</g>
<defs>
<clipPath id="clip0_146_878">
<rect width="57.0924" height="57.0924" fill="white" transform="translate(10.6666 16.5925)"/>
</clipPath>
<clipPath id="clip1_146_878">
<rect width="29.3878" height="54.8571" fill="white" transform="translate(56.8163 11.7551)"/>
</clipPath>
</defs>
</svg>
