<svg width="142" height="189" viewBox="0 0 142 189" fill="none" xmlns="http://www.w3.org/2000/svg">
<path d="M29.9306 145.664L28.9425 149.692H21.114L15.7556 172H10.9672L16.3256 149.692H8.49701L9.44708 145.664H29.9306ZM31.2619 172H26.7016L31.4519 152.125H36.0503L31.2619 172ZM34.6822 149.122C33.9981 149.122 33.4027 148.92 32.896 148.514C32.3893 148.109 32.136 147.501 32.136 146.69C32.136 145.753 32.4527 144.98 33.086 144.372C33.7448 143.764 34.4921 143.46 35.3282 143.46C36.0123 143.46 36.6076 143.675 37.1143 144.106C37.6464 144.511 37.9124 145.119 37.9124 145.93C37.9124 146.867 37.583 147.64 36.9243 148.248C36.2656 148.831 35.5182 149.122 34.6822 149.122ZM41.1611 152.961C42.1745 152.657 43.3145 152.378 44.5813 152.125C45.8481 151.846 47.2415 151.706 48.7616 151.706C49.9017 151.706 50.8518 151.871 51.6118 152.201C52.3972 152.53 53.0559 152.999 53.588 153.607C54.3227 153.176 55.2094 152.758 56.2482 152.353C57.3123 151.922 58.5157 151.706 59.8585 151.706C61.0239 151.706 62.0119 151.871 62.8227 152.201C63.6334 152.53 64.2921 152.986 64.7988 153.569C65.3055 154.151 65.6729 154.848 65.9009 155.659C66.1289 156.444 66.2429 157.306 66.2429 158.243C66.2429 159.282 66.1036 160.384 65.8249 161.549L63.3167 172H58.7184L61.0745 162.043C61.2012 161.562 61.3152 161.043 61.4166 160.485C61.5432 159.902 61.6066 159.32 61.6066 158.737C61.6066 158.332 61.5559 157.939 61.4546 157.559C61.3786 157.154 61.2266 156.812 60.9985 156.533C60.7705 156.254 60.4538 156.026 60.0485 155.849C59.6684 155.671 59.1744 155.583 58.5664 155.583C57.9076 155.583 57.2616 155.709 56.6282 155.963C55.9948 156.216 55.4628 156.482 55.0321 156.761C55.1334 157.242 55.1841 157.762 55.1841 158.319C55.1841 158.826 55.1461 159.358 55.0701 159.915C54.9941 160.472 54.8927 161.017 54.7661 161.549L52.2579 172H47.6595L50.0157 162.043C50.1424 161.587 50.2564 161.068 50.3577 160.485C50.4844 159.877 50.5478 159.282 50.5478 158.699C50.5478 157.863 50.3451 157.141 49.9397 156.533C49.5597 155.899 48.825 155.583 47.7355 155.583C47.2288 155.583 46.7475 155.621 46.2914 155.697C45.8354 155.747 45.4174 155.823 45.0373 155.925L41.1991 172H36.6007L41.1611 152.961ZM69.0854 164.817C69.0854 163.12 69.3514 161.486 69.8835 159.915C70.4409 158.319 71.2263 156.913 72.2397 155.697C73.2784 154.455 74.5198 153.467 75.9639 152.733C77.4081 151.998 79.0295 151.63 80.8283 151.63C82.7538 151.63 84.2486 152.125 85.3126 153.113C86.3767 154.101 86.9088 155.367 86.9088 156.913C86.9088 158.509 86.5161 159.801 85.7307 160.789C84.9453 161.777 83.9192 162.55 82.6524 163.107C81.411 163.665 79.9922 164.045 78.3961 164.247C76.8253 164.45 75.2292 164.577 73.6078 164.627C73.5824 164.678 73.5698 164.729 73.5698 164.779V165.159C73.5698 167.465 75.0265 168.618 77.9401 168.618C79.6629 168.618 81.3857 168.263 83.1085 167.554L83.4885 171.278C82.8805 171.557 82.0191 171.835 80.9043 172.114C79.7896 172.393 78.5228 172.532 77.104 172.532C75.6853 172.532 74.4692 172.329 73.4558 171.924C72.4423 171.519 71.6063 170.961 70.9476 170.252C70.3142 169.542 69.8455 168.732 69.5415 167.82C69.2374 166.882 69.0854 165.882 69.0854 164.817ZM80.1443 155.393C79.3842 155.393 78.6621 155.545 77.9781 155.849C77.294 156.153 76.686 156.571 76.154 157.103C75.6219 157.635 75.1532 158.268 74.7479 159.003C74.3678 159.712 74.0891 160.485 73.9118 161.321C76.952 161.22 79.1562 160.852 80.5243 160.219C81.9177 159.586 82.6144 158.636 82.6144 157.369C82.6144 156.862 82.4244 156.406 82.0444 156.001C81.6897 155.595 81.0563 155.393 80.1443 155.393ZM103.153 172C102.849 171.012 102.545 170.087 102.241 169.226C101.937 168.339 101.62 167.49 101.29 166.68C100.986 165.869 100.67 165.071 100.34 164.285C100.011 163.5 99.6563 162.689 99.2763 161.853L90.8017 172H85.2533L97.3002 157.825L91.9418 145.664H97.2242L100.796 154.595C102.063 153.125 103.292 151.63 104.483 150.11C105.699 148.59 106.801 147.108 107.789 145.664H113.147C112.413 146.703 111.627 147.767 110.791 148.856C109.955 149.92 109.094 150.997 108.207 152.087C107.32 153.151 106.421 154.215 105.509 155.279C104.622 156.317 103.748 157.318 102.887 158.281C103.9 160.612 104.85 162.879 105.737 165.083C106.624 167.262 107.46 169.568 108.245 172H103.153Z" fill="#111111"/>
<path d="M52.4667 178.374C52.701 178.231 52.971 178.109 53.2767 178.007C53.5823 177.905 53.9084 177.854 54.2548 177.854C54.6929 177.854 55.075 177.925 55.401 178.068C55.7373 178.211 56.0124 178.409 56.2263 178.664C56.4403 178.909 56.5982 179.204 56.7001 179.55C56.8122 179.897 56.8682 180.269 56.8682 180.666C56.8682 181.369 56.7562 182.052 56.532 182.714C56.3079 183.366 55.9665 183.952 55.508 184.472C55.0495 184.981 54.4739 185.394 53.781 185.71C53.0984 186.015 52.2934 186.168 51.3663 186.168C51.2134 186.168 51.0453 186.158 50.8619 186.138C50.6785 186.127 50.49 186.102 50.2964 186.061C50.113 186.02 49.9296 185.969 49.7462 185.908C49.573 185.847 49.4202 185.776 49.2877 185.694L51.9929 174.385L53.4753 174.14L52.4667 178.374ZM53.9033 179.061C53.5976 179.061 53.2919 179.117 52.9863 179.229C52.6908 179.331 52.4106 179.479 52.1457 179.673L50.9078 184.854C51.0096 184.874 51.1268 184.895 51.2593 184.915C51.3917 184.935 51.5242 184.945 51.6566 184.945C52.2374 184.945 52.7621 184.833 53.2308 184.609C53.6995 184.375 54.0969 184.069 54.4229 183.692C54.749 183.305 54.9986 182.867 55.1718 182.378C55.3552 181.879 55.4469 181.359 55.4469 180.819C55.4469 180.595 55.4214 180.376 55.3705 180.162C55.3297 179.948 55.2482 179.759 55.1259 179.596C55.0139 179.433 54.8559 179.306 54.6522 179.214C54.4586 179.112 54.2089 179.061 53.9033 179.061ZM60.5343 184.716C60.9215 184.105 61.273 183.473 61.5889 182.821C61.9047 182.159 62.1798 181.527 62.4142 180.926C62.6587 180.325 62.8625 179.775 63.0255 179.275C63.1885 178.766 63.3057 178.358 63.377 178.053H64.8595C64.7474 178.44 64.5895 178.924 64.3857 179.505C64.1819 180.075 63.9323 180.697 63.6368 181.369C63.3516 182.031 63.0255 182.714 62.6587 183.417C62.3021 184.11 61.9098 184.777 61.4819 185.419C61.1558 185.898 60.8298 186.346 60.5038 186.764C60.1777 187.192 59.8262 187.559 59.4492 187.865C59.0824 188.18 58.6749 188.425 58.2265 188.598C57.7782 188.782 57.2739 188.873 56.7135 188.873C56.4282 188.873 56.1633 188.838 55.9188 188.766C55.6742 188.695 55.4959 188.619 55.3839 188.537L55.8729 187.375C55.9748 187.457 56.1124 187.523 56.2856 187.574C56.4588 187.635 56.6524 187.666 56.8663 187.666C57.4573 187.666 57.9565 187.523 58.3641 187.238C58.7818 186.953 59.1741 186.576 59.5409 186.107C59.1639 184.874 58.8532 183.575 58.6086 182.21C58.3743 180.844 58.2316 179.459 58.1807 178.053H59.6326C59.6428 178.511 59.6683 179.016 59.709 179.566C59.7498 180.106 59.8058 180.671 59.8771 181.262C59.9587 181.843 60.0504 182.429 60.1522 183.02C60.2643 183.611 60.3917 184.176 60.5343 184.716ZM73.204 175.302C74.4368 175.302 75.364 175.536 75.9855 176.005C76.6172 176.473 76.9331 177.156 76.9331 178.053C76.9331 178.746 76.8006 179.347 76.5357 179.856C76.281 180.355 75.9142 180.768 75.4353 181.094C74.9564 181.42 74.3808 181.665 73.7083 181.828C73.0358 181.98 72.287 182.057 71.4617 182.057H70.4071L69.4595 186H67.9771L70.4835 175.546C70.9115 175.444 71.3649 175.378 71.8437 175.348C72.3226 175.317 72.776 175.302 73.204 175.302ZM73.0206 176.555C72.2971 176.555 71.859 176.575 71.7062 176.616L70.6975 180.819H71.6603C72.0883 180.819 72.5264 180.783 72.9747 180.712C73.423 180.63 73.8255 180.493 74.1821 180.299C74.5387 180.106 74.8291 179.841 75.0532 179.505C75.2876 179.158 75.4047 178.715 75.4047 178.175C75.4047 177.594 75.1908 177.182 74.7629 176.937C74.3349 176.682 73.7542 176.555 73.0206 176.555ZM81.9283 176.555C81.1642 176.555 80.7057 176.575 80.5528 176.616L78.5966 184.777C78.6781 184.798 78.8156 184.818 79.0092 184.838C79.2028 184.849 79.5187 184.854 79.9568 184.854C80.7617 184.854 81.4851 184.721 82.127 184.456C82.7791 184.181 83.3293 183.804 83.7776 183.325C84.2259 182.836 84.5723 182.261 84.8169 181.598C85.0614 180.926 85.1837 180.192 85.1837 179.398C85.1837 178.501 84.9239 177.803 84.4042 177.304C83.8846 176.805 83.0593 176.555 81.9283 176.555ZM82.0506 175.302C83.6197 175.302 84.7914 175.674 85.5658 176.417C86.3401 177.151 86.7273 178.144 86.7273 179.398C86.7273 180.274 86.5897 181.12 86.3146 181.935C86.0395 182.74 85.6116 183.453 85.0308 184.074C84.4501 184.696 83.7063 185.19 82.7995 185.557C81.9029 185.924 80.8279 186.107 79.5747 186.107C79.1468 186.107 78.6832 186.087 78.1839 186.046C77.6847 186.005 77.2465 185.934 76.8696 185.832L79.3302 175.546C79.7581 175.444 80.2115 175.378 80.6904 175.348C81.1693 175.317 81.6227 175.302 82.0506 175.302ZM92.4495 175.302C93.5804 175.302 94.477 175.531 95.1393 175.989C95.8016 176.448 96.1327 177.12 96.1327 178.007C96.1327 178.903 95.8678 179.657 95.338 180.269C94.8184 180.87 94.0848 181.303 93.1372 181.568C93.2595 181.782 93.4021 182.057 93.5651 182.393C93.7282 182.719 93.8963 183.086 94.0695 183.494C94.2427 183.891 94.4108 184.309 94.5738 184.747C94.7369 185.175 94.8795 185.592 95.0018 186H93.4887C93.3461 185.613 93.1983 185.221 93.0455 184.823C92.8927 184.426 92.7347 184.044 92.5717 183.677C92.4189 183.31 92.261 182.969 92.0979 182.653C91.9451 182.327 91.8025 182.042 91.67 181.797C91.5376 181.807 91.4051 181.817 91.2726 181.828C91.1402 181.828 91.0077 181.828 90.8753 181.828H89.6985L88.705 186H87.2226L89.729 175.546C90.157 175.444 90.6104 175.378 91.0892 175.348C91.5681 175.317 92.0215 175.302 92.4495 175.302ZM92.2661 176.555C91.5426 176.555 91.1045 176.575 90.9517 176.616L89.9888 180.62H90.8906C91.3083 180.62 91.7362 180.59 92.1744 180.529C92.6125 180.467 93.0098 180.35 93.3665 180.177C93.7333 179.994 94.0287 179.744 94.2529 179.428C94.4872 179.102 94.6044 178.674 94.6044 178.144C94.6044 177.574 94.3853 177.166 93.9472 176.922C93.5193 176.677 92.9589 176.555 92.2661 176.555ZM96.7651 180.758H100.464L100.158 182.087H96.4594L96.7651 180.758ZM109.212 175.409L108.921 176.647H105.727L103.481 186H101.998L104.245 176.647H101.05L101.341 175.409H109.212ZM109.045 181.828C109.636 181.807 110.176 181.772 110.665 181.721C111.155 181.66 111.577 181.563 111.934 181.43C112.291 181.288 112.566 181.099 112.759 180.865C112.963 180.63 113.065 180.325 113.065 179.948C113.065 179.856 113.045 179.759 113.004 179.657C112.973 179.556 112.912 179.464 112.82 179.382C112.739 179.291 112.622 179.219 112.469 179.168C112.316 179.107 112.128 179.077 111.903 179.077C111.547 179.077 111.211 179.153 110.895 179.306C110.589 179.459 110.314 179.663 110.069 179.917C109.825 180.162 109.616 180.452 109.443 180.788C109.27 181.114 109.137 181.461 109.045 181.828ZM110.497 186.199C109.978 186.199 109.529 186.127 109.152 185.985C108.775 185.832 108.46 185.628 108.205 185.373C107.95 185.108 107.762 184.803 107.639 184.456C107.517 184.11 107.456 183.743 107.456 183.356C107.456 182.643 107.563 181.955 107.777 181.293C107.991 180.63 108.297 180.045 108.694 179.535C109.091 179.026 109.575 178.623 110.146 178.328C110.716 178.022 111.363 177.869 112.087 177.869C112.505 177.869 112.861 177.925 113.157 178.037C113.462 178.139 113.707 178.282 113.89 178.465C114.084 178.649 114.227 178.863 114.318 179.107C114.41 179.342 114.456 179.586 114.456 179.841C114.456 180.32 114.369 180.727 114.196 181.063C114.023 181.39 113.793 181.665 113.508 181.889C113.223 182.113 112.887 182.286 112.499 182.408C112.123 182.531 111.725 182.627 111.307 182.699C110.9 182.77 110.482 182.821 110.054 182.852C109.636 182.872 109.239 182.892 108.862 182.913C108.852 182.994 108.847 183.061 108.847 183.111C108.847 183.162 108.847 183.203 108.847 183.234C108.847 183.468 108.872 183.692 108.923 183.906C108.984 184.11 109.091 184.293 109.244 184.456C109.397 184.609 109.606 184.731 109.871 184.823C110.146 184.915 110.502 184.961 110.941 184.961C111.134 184.961 111.333 184.945 111.537 184.915C111.751 184.874 111.949 184.828 112.133 184.777C112.326 184.716 112.494 184.66 112.637 184.609C112.79 184.548 112.897 184.492 112.958 184.441L113.08 185.648C112.876 185.761 112.545 185.878 112.087 186C111.639 186.132 111.109 186.199 110.497 186.199ZM120.272 186.092C120.221 185.98 120.17 185.857 120.119 185.725C120.068 185.582 120.028 185.435 119.997 185.282C119.773 185.485 119.472 185.689 119.095 185.893C118.718 186.097 118.255 186.199 117.705 186.199C117.256 186.199 116.869 186.127 116.543 185.985C116.227 185.842 115.967 185.643 115.764 185.389C115.56 185.134 115.407 184.833 115.305 184.487C115.213 184.141 115.168 183.758 115.168 183.341C115.168 182.658 115.28 181.991 115.504 181.339C115.738 180.687 116.085 180.106 116.543 179.596C117.002 179.087 117.577 178.674 118.27 178.358C118.963 178.042 119.773 177.885 120.7 177.885C120.975 177.885 121.296 177.915 121.663 177.976C122.03 178.037 122.346 178.139 122.611 178.282L121.434 183.081C121.383 183.315 121.337 183.539 121.296 183.753C121.266 183.967 121.25 184.191 121.25 184.426C121.25 184.66 121.271 184.9 121.312 185.144C121.352 185.378 121.424 185.633 121.525 185.908L120.272 186.092ZM117.995 184.991C118.423 184.991 118.79 184.9 119.095 184.716C119.401 184.533 119.666 184.319 119.89 184.074C119.9 183.901 119.916 183.723 119.936 183.539C119.967 183.346 120.002 183.152 120.043 182.959L120.96 179.168C120.909 179.148 120.822 179.133 120.7 179.123C120.588 179.112 120.486 179.107 120.395 179.107C119.814 179.107 119.289 179.219 118.82 179.443C118.352 179.668 117.949 179.968 117.613 180.345C117.287 180.712 117.032 181.145 116.849 181.644C116.676 182.133 116.589 182.648 116.589 183.188C116.589 183.402 116.609 183.621 116.65 183.845C116.691 184.059 116.762 184.253 116.864 184.426C116.976 184.589 117.119 184.726 117.292 184.838C117.475 184.94 117.71 184.991 117.995 184.991ZM132.177 177.885C132.625 177.885 133.002 177.956 133.308 178.099C133.624 178.231 133.874 178.414 134.057 178.649C134.251 178.883 134.388 179.158 134.47 179.474C134.551 179.78 134.592 180.106 134.592 180.452C134.592 180.676 134.571 180.921 134.531 181.186C134.5 181.44 134.454 181.69 134.393 181.935L133.415 186H131.994L132.895 182.24C132.946 182.006 133.002 181.746 133.064 181.461C133.135 181.165 133.171 180.875 133.171 180.59C133.171 180.396 133.145 180.208 133.094 180.024C133.053 179.841 132.977 179.683 132.865 179.55C132.763 179.418 132.615 179.311 132.422 179.229C132.228 179.148 131.989 179.107 131.703 179.107C131.377 179.107 131.061 179.173 130.756 179.306C130.45 179.428 130.195 179.556 129.992 179.688C130.012 179.831 130.027 179.973 130.037 180.116C130.058 180.248 130.068 180.381 130.068 180.513C130.068 180.748 130.048 180.987 130.007 181.232C129.976 181.466 129.936 181.7 129.885 181.935L128.906 186H127.485L128.387 182.24C128.438 182.006 128.494 181.741 128.555 181.446C128.616 181.15 128.647 180.855 128.647 180.559C128.647 180.366 128.626 180.182 128.586 180.009C128.545 179.826 128.473 179.668 128.372 179.535C128.28 179.403 128.153 179.301 127.989 179.229C127.826 179.148 127.618 179.107 127.363 179.107C127.108 179.107 126.859 179.123 126.614 179.153C126.38 179.184 126.181 179.224 126.018 179.275L124.398 186H122.977L124.811 178.358C125.269 178.216 125.768 178.104 126.308 178.022C126.859 177.93 127.348 177.885 127.776 177.885C128.203 177.885 128.565 177.961 128.861 178.114C129.156 178.256 129.39 178.45 129.564 178.695C129.666 178.623 129.803 178.542 129.976 178.45C130.16 178.358 130.363 178.272 130.588 178.19C130.822 178.109 131.072 178.037 131.337 177.976C131.612 177.915 131.892 177.885 132.177 177.885ZM141.044 178.168C141.044 178.636 140.968 179.052 140.816 179.417C140.664 179.781 140.46 180.091 140.204 180.347C139.948 180.597 139.652 180.791 139.314 180.927C138.977 181.057 138.623 181.122 138.253 181.122C137.883 181.122 137.53 181.057 137.192 180.927C136.855 180.791 136.559 180.597 136.303 180.347C136.047 180.091 135.843 179.781 135.691 179.417C135.538 179.052 135.462 178.636 135.462 178.168C135.462 177.706 135.538 177.292 135.691 176.928C135.843 176.558 136.047 176.248 136.303 175.997C136.559 175.742 136.855 175.548 137.192 175.418C137.53 175.282 137.883 175.214 138.253 175.214C138.623 175.214 138.977 175.282 139.314 175.418C139.652 175.548 139.948 175.742 140.204 175.997C140.46 176.248 140.664 176.558 140.816 176.928C140.968 177.292 141.044 177.706 141.044 178.168ZM140.449 178.168C140.449 177.809 140.394 177.483 140.285 177.189C140.177 176.89 140.024 176.634 139.828 176.422C139.638 176.209 139.407 176.046 139.135 175.932C138.868 175.818 138.574 175.761 138.253 175.761C137.932 175.761 137.636 175.818 137.364 175.932C137.097 176.046 136.866 176.209 136.67 176.422C136.48 176.634 136.33 176.89 136.221 177.189C136.112 177.483 136.058 177.809 136.058 178.168C136.058 178.527 136.112 178.856 136.221 179.156C136.33 179.449 136.48 179.702 136.67 179.915C136.866 180.127 137.097 180.29 137.364 180.404C137.636 180.518 137.932 180.576 138.253 180.576C138.574 180.576 138.868 180.518 139.135 180.404C139.407 180.29 139.638 180.127 139.828 179.915C140.024 179.702 140.177 179.449 140.285 179.156C140.394 178.856 140.449 178.527 140.449 178.168ZM139.061 179.792C138.936 179.547 138.795 179.316 138.637 179.098C138.485 178.875 138.351 178.699 138.237 178.568H137.69V179.792H137.111V176.626C137.258 176.593 137.413 176.569 137.576 176.552C137.739 176.536 137.889 176.528 138.025 176.528C138.498 176.528 138.855 176.615 139.094 176.789C139.339 176.958 139.461 177.221 139.461 177.581C139.461 177.782 139.407 177.959 139.298 178.111C139.195 178.258 139.045 178.372 138.849 178.454C138.904 178.519 138.966 178.601 139.037 178.699C139.108 178.797 139.181 178.905 139.257 179.025C139.339 179.139 139.415 179.264 139.486 179.4C139.562 179.531 139.63 179.662 139.69 179.792H139.061ZM137.69 178.095H138C138.245 178.095 138.449 178.062 138.612 177.997C138.776 177.926 138.857 177.785 138.857 177.572C138.857 177.371 138.778 177.232 138.621 177.156C138.468 177.075 138.283 177.034 138.066 177.034C138.006 177.034 137.943 177.036 137.878 177.042C137.813 177.042 137.75 177.045 137.69 177.05V178.095Z" fill="#111111"/>
<path d="M16 10L102 133" stroke="#111111" stroke-width="13" stroke-linecap="square"/>
<path d="M43 10L72.9563 53.0305" stroke="#111111" stroke-opacity="0.85" stroke-width="13" stroke-linecap="square"/>
<path d="M72.0001 10L88.0001 32" stroke="#111111" stroke-opacity="0.7" stroke-width="13" stroke-linecap="square"/>
<path d="M100.526 10L101.771 11.72" stroke="#111111" stroke-opacity="0.5" stroke-width="13" stroke-linecap="square"/>
<path d="M74.7715 133.078L44.8152 90.0477" stroke="#111111" stroke-opacity="0.85" stroke-width="13" stroke-linecap="square"/>
<path d="M45.7715 133.078L29.7715 111.078" stroke="#111111" stroke-opacity="0.7" stroke-width="13" stroke-linecap="square"/>
<path d="M17.2457 133.078L16 131.358" stroke="#111111" stroke-opacity="0.5" stroke-width="13" stroke-linecap="square"/>
</svg>
